PathFileType	4	(X/Y/Z)	C:/Users/opensim2020/Desktop/walking_exp_matlab/subject01_walking11_straight_01.trc																																																																																																																																		
DataRate	CameraRate	NumFrames	NumMarkers	Units	OrigDataRate	OrigDataStartFrame	OrigNumFrames																																																																																																																														
100	100	6	44	mm	100	1190	374																																																																																																																														
Frame#	Time	LFHD			RFHD			LBHD			RBHD			C7			T10			CLAV			STRN			RBAK			LSHO			LUPA			LELB			LFRM			LWRA			LWRB			LFIN			RSHO			RUPA			RELB			RFRM			RWRA			RWRB			RFIN			LASI			RASI			LPSI			RPSI			LTHI			LKNE			LTIB			LANK			LHEE			LTOE			RTHI			RKNE			RTIB			RANK			RHEE			RTOE			*39			*40			*41			*42			*43		
		X1	Y1	Z1	X2	Y2	Z2	X3	Y3	Z3	X4	Y4	Z4	X5	Y5	Z5	X6	Y6	Z6	X7	Y7	Z7	X8	Y8	Z8	X9	Y9	Z9	X10	Y10	Z10	X11	Y11	Z11	X12	Y12	Z12	X13	Y13	Z13	X14	Y14	Z14	X15	Y15	Z15	X16	Y16	Z16	X17	Y17	Z17	X18	Y18	Z18	X19	Y19	Z19	X20	Y20	Z20	X21	Y21	Z21	X22	Y22	Z22	X23	Y23	Z23	X24	Y24	Z24	X25	Y25	Z25	X26	Y26	Z26	X27	Y27	Z27	X28	Y28	Z28	X29	Y29	Z29	X30	Y30	Z30	X31	Y31	Z31	X32	Y32	Z32	X33	Y33	Z33	X34	Y34	Z34	X35	Y35	Z35	X36	Y36	Z36	X37	Y37	Z37	X38	Y38	Z38	X39	Y39	Z39	X40	Y40	Z40	X41	Y41	Z41	X42	Y42	Z42	X43	Y43	Z43	X44	Y44	Z44
																																																																																																																																					
281	2.8	402.71375	1680.71484	1415.86694	429.18283	1689.97046	1525.75354	301.28003	1611.2948	1438.65015	327.03427	1619.31738	1555.46729	299.35846	1434.44629	1471.67419	257.77951	1145.22644	1478.66333	441.71072	1365.90723	1465.80359	480.06943	1207.02539	1458.92737	243.57085	1243.42859	1550.40649	376.16791	1396.87317	1308.22241	334.07162	1214.0498	1225.94153	311.42142	1066.09875	1227.73303	336.17667	955.90857	1200.14087	401.00552	831.2467	1215.64331	345.84579	833.92975	1191.13062	386.21509	758.51721	1180.80261	382.96188	1394.52112	1618.23083	337.97964	1193.9751	1724.48315	349.68506	1069.25049	1730.00549	400.90552	959.21777	1759.52466	504.53268	863.72406	1740.6676	461.51913	853.99384	1778.5686	515.37305	786.59589	1776.44116	418.01108	935.82581	1364.51465	421.28888	929.10822	1581.91577	233.05479	951.11078	1417.00244	235.55919	952.06366	1561.9314	456.31619	620.39893	1284.64404	484.6853	488.93466	1302.1532	461.03809	304.57056	1294.04504	480.83231	83.68814	1339.61584	454.35077	46.18784	1400.85254	621.82574	69.66003	1305.25171	347.85931	598.00238	1624.21545	347.79663	439.46704	1593.15308	280.68903	275.75146	1598.2998	233.59946	76.91751	1542.99658	179.08435	42.10247	1494.67468	371.62958	35.82391	1536.51904	407.00052	1719.89478	1506.10217	1973.0083	1024.00159	-3101.99023	2012.48975	1022.15002	-3140.68677	NaN	NaN	NaN	NaN	NaN	NaN
282	2.81	408.9169	1680.06677	1414.80054	435.57968	1689.41809	1524.66223	307.53763	1610.80261	1437.83496	333.42636	1618.93384	1554.66101	305.4707	1433.90393	1470.93616	263.68262	1144.77979	1478.01379	447.84592	1365.32739	1465.04785	486.12772	1206.45776	1458.31799	249.68117	1243.05859	1549.90503	382.14572	1396.24329	1307.46582	339.62253	1213.43933	1225.40247	316.68555	1065.54236	1227.28308	341.02054	955.27539	1199.71765	405.40771	830.38684	1215.14661	350.18344	833.25061	1190.71936	390.17572	757.62878	1180.36707	389.2121	1394.13196	1617.4718	344.71976	1193.54309	1723.93372	356.73679	1068.90955	1729.54663	408.25024	959.03009	1759.05615	512.01898	863.72058	1740.06055	469.11517	853.97803	1778.13708	523.14026	786.7052	1775.94067	424.30414	935.21863	1364.08313	426.7648	928.59723	1581.33264	239.6568	950.47272	1416.35559	241.4745	951.90149	1561.32434	460.41483	619.09607	1284.74963	489.91278	488.17413	1302.03809	471.87549	303.58917	1293.45691	499.26624	83.10874	1338.17114	473.40204	44.45518	1398.88843	640.77209	73.11637	1304.73486	351.93784	597.64423	1623.86023	350.67737	439.06091	1593.06982	282.5025	275.77112	1598.27905	233.89667	77.22073	1542.99878	179.24165	42.88304	1494.96484	371.72452	35.76487	1536.58301	413.37491	1719.33057	1504.89661	1973.20801	1023.5351	-3101.96533	2012.51587	1022.00635	-3140.79663	NaN	NaN	NaN	NaN	NaN	NaN
283	2.82	415.21957	1679.4209	1413.7218	442.01746	1688.88013	1523.51904	313.72516	1610.26746	1436.90027	339.80054	1618.50635	1553.68384	311.5838	1433.30115	1470.12292	269.76602	1144.19678	1477.23071	454.00787	1364.72437	1464.20032	492.18689	1205.82239	1457.52979	255.84091	1242.59485	1549.29443	388.09912	1395.60632	1306.65369	345.38742	1212.77319	1224.72412	322.1405	1065.02612	1226.88855	345.98071	954.65314	1199.17664	409.89722	829.44562	1214.53577	354.62073	832.58679	1190.16528	394.33951	756.80286	1179.82312	395.47559	1393.69104	1616.70508	351.46085	1193.14294	1723.36023	363.78238	1068.51318	1728.93628	415.57596	958.72418	1758.42505	519.48682	863.62286	1739.38843	476.6293	853.73547	1777.39893	530.79388	786.58215	1775.27771	430.74979	934.56201	1363.58105	432.54681	928.07251	1580.84033	245.70245	949.94135	1415.52075	247.33101	951.71399	1560.59705	465.28583	617.82098	1284.52722	495.61813	487.40604	1302.14709	482.41547	302.66876	1292.86646	516.93439	82.98974	1336.83032	491.44489	43.17882	1397.17102	658.95917	76.87423	1304.46118	356.13351	597.48712	1623.65759	353.68167	438.68481	1593.03247	284.32455	276.06882	1598.35352	234.09846	77.61983	1543.06812	179.29073	43.61322	1494.93933	371.71167	35.73916	1536.61365	419.81693	1718.77405	1503.7312	1973.04797	1023.47571	-3101.98438	2012.54016	1022.06909	-3140.61597	NaN	NaN	NaN	NaN	NaN	NaN
284	2.83	421.58127	1678.76709	1412.54907	448.28299	1688.17249	1522.12292	319.91745	1609.70105	1435.91663	346.17841	1618.04956	1552.67322	317.71124	1432.75244	1469.33167	275.84848	1143.60132	1476.36377	460.15015	1364.05627	1463.23413	498.24365	1205.16956	1456.75122	261.9787	1242.10449	1548.62622	394.07693	1394.94958	1305.71973	351.11813	1212.09424	1223.92603	327.57315	1064.30896	1226.19446	351.09827	953.99414	1198.60583	414.66547	828.5542	1213.84045	359.32104	831.84766	1189.58618	398.76788	755.86475	1179.19666	401.74023	1393.1936	1615.73792	358.17212	1192.74304	1722.69434	370.86057	1068.06555	1728.23132	422.80591	958.36035	1757.6947	526.8576	863.44177	1738.63843	483.88431	853.38391	1776.61914	538.36389	786.48871	1774.5625	437.26379	933.84174	1363.1051	438.36942	927.52655	1580.35229	251.9727	949.3526	1414.61169	253.2251	951.28882	1559.71448	470.39713	616.61438	1284.25537	501.27631	486.67557	1301.87952	492.70035	301.81204	1292.19543	533.83893	83.04482	1335.45142	508.82709	42.55625	1395.86731	676.2522	80.40928	1304.45032	360.38336	597.18066	1623.36816	356.72754	438.28595	1592.94104	286.03787	276.23499	1598.3252	234.31526	78.05044	1543.07446	179.37059	44.11446	1494.66394	371.6846	35.67304	1536.59265	426.25888	1718.27954	1502.6344	1973.1322	1023.47333	-3101.89014	2012.48914	1022.03595	-3140.74365	NaN	NaN	NaN	NaN	NaN	NaN
285	2.84	427.81693	1678.10376	1411.28259	454.78116	1687.65259	1520.93152	326.12994	1609.13489	1434.82092	352.51147	1617.52747	1551.48621	323.88202	1432.17517	1468.34766	281.96231	1142.99866	1475.42017	466.31543	1363.41931	1462.19336	504.34903	1204.49817	1455.84253	268.14359	1241.60364	1547.81641	400.13754	1394.30469	1304.68982	356.96686	1211.37634	1223.14734	333.27893	1063.71399	1225.51025	356.33765	953.22766	1197.90112	419.54514	827.664	1213.11133	364.19785	831.11316	1188.9364	403.31903	755.12054	1178.58496	407.9762	1392.68311	1614.73438	364.93085	1192.33264	1721.88306	377.90976	1067.58508	1727.39856	430.0473	958.02411	1756.92175	534.19806	863.14996	1737.77087	491.42691	853.15356	1775.84204	545.8006	786.20325	1773.68958	443.78934	933.09479	1362.64673	444.24796	926.97369	1579.85059	258.28461	948.68549	1413.66187	259.16577	950.69342	1558.58679	476.00146	615.5097	1283.9541	507.09122	485.79779	1301.6958	502.91397	301.11917	1291.47278	549.34631	83.10928	1334.48242	525.05255	42.2473	1394.69495	692.38934	83.55151	1304.35168	364.64978	596.96503	1623.05212	359.89462	437.89651	1592.84851	287.95319	276.47455	1598.31616	234.77385	78.66886	1543.23047	179.73756	45.12472	1495.06238	371.7605	35.61286	1536.63562	432.63004	1717.64014	1501.29187	1973.0188	1023.82935	-3102.0647	2012.53943	1021.96582	-3140.65503	NaN	NaN	NaN	NaN	NaN	NaN
286	2.85	434.10883	1677.37817	1409.91992	461.20538	1687.05066	1519.52747	332.13821	1608.61218	1433.4884	358.89975	1617.02307	1550.2699	330.00443	1431.53455	1467.29541	288.12323	1142.32153	1474.31238	472.51575	1362.72437	1461.05286	510.53763	1203.85339	1454.89539	274.35806	1241.0719	1546.90784	406.22949	1393.60962	1303.56921	362.9563	1210.60144	1222.15942	339.03677	1063.11133	1224.78625	361.76456	952.59045	1197.19629	424.64001	826.73206	1212.29346	369.26959	830.35266	1188.22046	408.16092	754.14575	1177.84229	414.21506	1392.10559	1613.62524	371.58908	1191.77368	1720.86572	385.00986	1067.10205	1726.49756	437.20828	957.54523	1756.01831	541.46027	862.8114	1736.85229	498.76917	852.83978	1774.97119	553.13831	785.83624	1772.75427	450.40265	932.29834	1362.10266	450.13464	926.48798	1579.36926	264.72925	947.9292	1412.50354	265.20441	950.21857	1557.3252	482.21762	614.49316	1283.27185	513.21899	485.08063	1301.3501	512.73981	300.49643	1290.61951	564.0896	83.41344	1333.63281	540.30042	42.18031	1393.76013	707.35876	86.41927	1304.58215	369.02649	596.65271	1622.65222	363.36749	437.68613	1592.71155	289.87378	276.70038	1598.15308	235.05096	79.34964	1543.27454	179.77039	46.18525	1494.93713	371.82367	35.60279	1536.66516	439.05637	1717.03918	1499.87378	1972.98889	1023.39777	-3102.05225	2012.60413	1022.13977	-3140.7793	NaN	NaN	NaN	NaN	NaN	NaN
